<svg xmlns="http://www.w3.org/2000/svg" shape-rendering="geometricPrecision" text-rendering="geometricPrecision" image-rendering="optimizeQuality" fill-rule="evenodd" clip-rule="evenodd" viewBox="0 0 484 511.62"><path fill="#574015" fill-rule="nonzero" d="m454.11 384.15-20 34.64c-2.88 5.93-8.97 10.03-16.01 10.03h-76.97c-.35.88-.76 1.74-1.25 2.56l-41.22 71.34c-3.27 5.7-9.23 8.89-15.36 8.89l-82.59.01c-6.55 0-12.28-3.56-15.34-8.84l-41.33-71.52a17.6 17.6 0 0 1-1.19-2.48l-76.39.04c-7.04 0-13.13-4.1-16.02-10.03l-40.65-70.4c-3.32-5.74-3.07-12.58.08-17.92l39.78-68.85a17.62 17.62 0 0 1-5.96-6.19L2.47 184.09c-3.15-5.34-3.4-12.18-.08-17.92l20.65-35.76 20-34.64c2.89-5.93 8.98-10.02 16.02-10.02h82.58l.38.01c.39-1.92 1.1-3.77 2.1-5.46l41.22-71.4c3.29-5.67 9.25-8.85 15.37-8.86L283.29 0c7.04 0 13.13 4.09 16.02 10.02l40.65 70.4a18.06 18.06 0 0 1 2.04 5.37h.36l82.58-.04c7.04 0 13.13 4.09 16.02 10.02l40.65 70.4c3.32 5.74 3.07 12.58-.08 17.92l-41.22 71.34a17.582 17.582 0 0 1-5.55 5.93l39.93 69.11c3.14 5.34 3.4 12.18.07 17.92l-20.65 35.76z"/><path fill="#FFCB1E" d="m283.29 350.84 20.65 35.76 20.65 35.76-20.65 35.76-20.64 35.77-41.3-.01-41.29.01-20.65-35.77-20.65-35.76 20.65-35.76 20.65-35.76h82.58zM136.63 196.18c2.01-3.37 6.37-4.46 9.74-2.45 3.36 2.01 4.45 6.37 2.44 9.74l-12.59 20.98a7.088 7.088 0 0 1-6.09 3.45l-20.39.03c-3.93 0-7.12-3.19-7.12-7.12s3.19-7.12 7.12-7.12h16.38l10.51-17.51zm132.87-89.3c2.01-3.36 6.37-4.45 9.73-2.44a7.09 7.09 0 0 1 2.45 9.73l-12.59 20.99a7.088 7.088 0 0 1-6.09 3.45l-20.39.02c-3.93 0-7.12-3.19-7.12-7.12s3.19-7.12 7.12-7.12h16.38l10.51-17.51zm137.37 89.3a7.09 7.09 0 0 1 9.73-2.45c3.37 2.01 4.46 6.37 2.45 9.74l-12.59 20.98a7.088 7.088 0 0 1-6.09 3.45l-20.39.03c-3.93 0-7.12-3.19-7.12-7.12s3.19-7.12 7.12-7.12h16.38l10.51-17.51zm3.33 147.45c2.01-3.36 6.38-4.45 9.74-2.44a7.09 7.09 0 0 1 2.45 9.73l-12.59 20.99a7.092 7.092 0 0 1-6.1 3.45l-20.38.03c-3.93 0-7.13-3.2-7.13-7.13 0-3.93 3.2-7.12 7.13-7.12h16.38l10.5-17.51zm-140.07-74.39c2.01-3.36 6.37-4.45 9.74-2.44 3.36 2.01 4.45 6.37 2.44 9.73l-12.59 20.99a7.088 7.088 0 0 1-6.09 3.45l-20.39.03c-3.93 0-7.12-3.2-7.12-7.13 0-3.93 3.19-7.12 7.12-7.12h16.38l10.51-17.51zm0 144.79c2.01-3.36 6.37-4.45 9.74-2.44 3.36 2.01 4.45 6.37 2.44 9.73l-12.59 20.99a7.088 7.088 0 0 1-6.09 3.45l-20.39.03c-3.93 0-7.12-3.2-7.12-7.13 0-3.93 3.19-7.12 7.12-7.12h16.38l10.51-17.51zm-138.38-70.4c2.01-3.36 6.38-4.45 9.74-2.44a7.09 7.09 0 0 1 2.45 9.73l-12.59 20.99a7.092 7.092 0 0 1-6.1 3.45l-20.38.03c-3.93 0-7.13-3.2-7.13-7.13 0-3.93 3.2-7.12 7.13-7.12h16.38l10.5-17.51zM283.29 17.8l20.65 35.77 20.65 35.76-20.65 35.76-20.64 35.76h-82.59l-20.65-35.76-20.65-35.76 20.65-35.76 20.65-35.77h82.58zM59.06 103.55l-20.65 35.76-20.65 35.76 20.65 35.76 20.64 35.77 41.3-.01 41.29.01 20.65-35.77 20.65-35.76-20.65-35.76-20.65-35.76H59.06zm365.88 0 20.65 35.76 20.65 35.76-20.65 35.76-20.64 35.77-41.3-.01-41.29.01-20.65-35.77-20.65-35.76 20.65-35.76 20.65-35.76h82.58zm-6.84 307.46 20.64-35.76 20.65-35.76-20.65-35.76-20.64-35.77-41.3.01-41.29-.01-20.65 35.77-20.64 35.76 20.64 35.76 20.65 35.76h82.59zM283.57 184.32l20.65 35.76 20.65 35.76-20.65 35.77-20.65 35.76h-82.59l-20.64-35.76-20.65-35.77 20.65-35.76 20.64-35.76h82.59zM66.46 411.01l-20.65-35.76-20.65-35.76 20.65-35.76 20.64-35.77 41.3.01 41.29-.01 20.65 35.77 20.65 35.76-20.65 35.76-20.65 35.76H66.46z"/></svg>